<?xml version="1.0" standalone="no"?>
<!DOCTYPE svg PUBLIC "-//W3C//DTD SVG 20010904//EN"
 "http://www.w3.org/TR/2001/REC-SVG-20010904/DTD/svg10.dtd">
<svg version="1.0" xmlns="http://www.w3.org/2000/svg"
 width="700.000000pt" height="700.000000pt" viewBox="0 0 700.000000 700.000000"
 preserveAspectRatio="xMidYMid meet">
<metadata>
Created by potrace 1.11, written by Peter Selinger 2001-2013
</metadata>
<g transform="translate(0.000000,700.000000) scale(0.100000,-0.100000)"
fill="#000000" stroke="none">
<path d="M2009 4887 c-2 -3 -26 -7 -54 -10 -100 -11 -241 -74 -331 -148 -55
-46 -120 -101 -239 -204 -45 -38 -108 -92 -140 -120 -56 -48 -201 -172 -255
-219 -20 -17 -56 -26 -185 -45 -171 -25 -176 -26 -246 -35 -25 -4 -57 -9 -70
-11 -13 -2 -62 -9 -109 -15 -116 -15 -159 -27 -202 -57 -50 -34 -84 -89 -104
-168 -9 -37 -22 -72 -28 -78 -47 -48 -46 -38 -46 -450 0 -427 2 -442 60 -472
16 -8 111 -33 212 -55 100 -22 190 -43 198 -45 10 -3 22 -34 33 -82 60 -267
274 -478 546 -542 72 -16 233 -21 291 -8 224 49 409 189 509 382 17 33 31 65
31 72 0 7 6 13 13 14 10 0 2879 0 3140 -1 66 0 87 -3 87 -14 0 -17 55 -121 89
-166 200 -271 570 -371 877 -235 157 69 294 205 365 363 20 42 28 52 49 52
442 2 450 3 485 76 34 72 -1 140 -87 168 -16 5 -18 20 -18 126 0 104 5 132 23
118 6 -5 65 36 75 53 6 10 14 35 18 56 7 48 -27 103 -73 118 -18 6 -34 13 -37
16 -3 2 -6 34 -7 69 -6 171 -81 284 -242 363 -118 57 -368 133 -540 162 -18 3
-48 10 -67 15 -19 4 -57 11 -83 15 -27 3 -58 8 -70 11 -12 2 -39 6 -62 9 -22
3 -51 8 -65 10 -14 2 -47 7 -75 10 -111 11 -142 15 -175 20 -19 3 -64 7 -100
9 -36 3 -110 8 -165 12 -99 6 -216 11 -413 14 -90 2 -106 5 -127 24 -12 11
-144 163 -293 337 -291 340 -326 374 -441 430 -118 56 -61 53 -1042 56 -498 2
-907 2 -910 0z"/>
</g>
</svg>
